G04 #@! TF.FileFunction,Copper,L1,Top,Signal*
%FSLAX46Y46*%
G04 Gerber Fmt 4.6, Leading zero omitted, Abs format (unit mm)*
G04 Created by KiCad (PCBNEW 4.0.1-stable) date 3/11/2016 2:16:34 AM*
%MOMM*%
G01*
G04 APERTURE LIST*
%ADD10C,0.100000*%
%ADD11C,2.000000*%
%ADD12R,1.200000X1.400000*%
%ADD13R,0.800000X2.100000*%
%ADD14C,2.300000*%
%ADD15R,0.800100X0.800100*%
%ADD16R,1.300000X1.500000*%
%ADD17C,2.600000*%
%ADD18C,1.000000*%
%ADD19C,1.000000*%
%ADD20C,0.500000*%
G04 APERTURE END LIST*
D10*
D11*
X166870000Y-108600000D03*
X164330000Y-108600000D03*
D12*
X167000000Y-100400000D03*
X164200000Y-100400000D03*
D13*
X165600000Y-100400000D03*
D14*
X138000000Y-107500000D03*
X138000000Y-102500000D03*
D15*
X157399240Y-108050000D03*
X157399240Y-109950000D03*
X159398220Y-109000000D03*
D16*
X157400000Y-101550000D03*
X157400000Y-98850000D03*
D11*
X143200000Y-102000000D03*
X143200000Y-108000000D03*
X153200000Y-102000000D03*
X153200000Y-108000000D03*
D17*
X161500000Y-95700000D03*
X161500000Y-114700000D03*
D18*
X162000000Y-109000000D03*
X160800000Y-109000000D03*
X146000000Y-107400000D03*
X150900000Y-102500000D03*
X148400000Y-105000000D03*
D19*
X157399240Y-109950000D02*
X157399240Y-111899240D01*
X157399240Y-111899240D02*
X157400000Y-111900000D01*
X166870000Y-100530000D02*
X167000000Y-100400000D01*
X166870000Y-100530000D02*
X167000000Y-100400000D01*
X160800000Y-109000000D02*
X162000000Y-109000000D01*
X162000000Y-109000000D02*
X163930000Y-109000000D01*
X163930000Y-109000000D02*
X164330000Y-108600000D01*
X159398220Y-109000000D02*
X160800000Y-109000000D01*
X164200000Y-100400000D02*
X163300000Y-100400000D01*
X161500000Y-98600000D02*
X161500000Y-95700000D01*
X163300000Y-100400000D02*
X161500000Y-98600000D01*
X164330000Y-108600000D02*
X164330000Y-100530000D01*
X164330000Y-100530000D02*
X164200000Y-100400000D01*
X148428732Y-105028732D02*
X148428732Y-105030585D01*
X148400000Y-105000000D02*
X148428732Y-105028732D01*
X143200000Y-108000000D02*
X145400000Y-108000000D01*
X145400000Y-108000000D02*
X146000000Y-107400000D01*
X151400000Y-102000000D02*
X153200000Y-102000000D01*
X149800000Y-103600000D02*
X150900000Y-102500000D01*
X148428732Y-105030585D02*
X149100000Y-104400000D01*
X149100000Y-104400000D02*
X149800000Y-103600000D01*
X150900000Y-102500000D02*
X151400000Y-102000000D01*
X146000000Y-107400000D02*
X147400000Y-106000000D01*
X147450000Y-105950000D02*
X148428732Y-105030585D01*
X147400000Y-106000000D02*
X147450000Y-105950000D01*
X157399240Y-108050000D02*
X157399240Y-101550760D01*
X157399240Y-101550760D02*
X157400000Y-101550000D01*
X143200000Y-102000000D02*
X143200000Y-100200000D01*
X144550000Y-98850000D02*
X157400000Y-98850000D01*
X143200000Y-100200000D02*
X144550000Y-98850000D01*
D20*
G36*
X168950000Y-95603554D02*
X168950000Y-114183504D01*
X166608933Y-116150000D01*
X162567295Y-116150000D01*
X162625925Y-116038057D01*
X161500000Y-114912132D01*
X160374075Y-116038057D01*
X160432705Y-116150000D01*
X138487695Y-116150000D01*
X136650000Y-114679844D01*
X136650000Y-114406915D01*
X159636665Y-114406915D01*
X159666344Y-115142292D01*
X159890662Y-115683843D01*
X160161943Y-115825925D01*
X161287868Y-114700000D01*
X161712132Y-114700000D01*
X162838057Y-115825925D01*
X163109338Y-115683843D01*
X163363335Y-114993085D01*
X163333656Y-114257708D01*
X163109338Y-113716157D01*
X162838057Y-113574075D01*
X161712132Y-114700000D01*
X161287868Y-114700000D01*
X160161943Y-113574075D01*
X159890662Y-113716157D01*
X159636665Y-114406915D01*
X136650000Y-114406915D01*
X136650000Y-113361943D01*
X160374075Y-113361943D01*
X161500000Y-114487868D01*
X162625925Y-113361943D01*
X162483843Y-113090662D01*
X161793085Y-112836665D01*
X161057708Y-112866344D01*
X160516157Y-113090662D01*
X160374075Y-113361943D01*
X136650000Y-113361943D01*
X136650000Y-108729475D01*
X136982657Y-108729475D01*
X137106364Y-108985180D01*
X137742742Y-109214107D01*
X138418285Y-109182077D01*
X138893636Y-108985180D01*
X139017343Y-108729475D01*
X138000000Y-107712132D01*
X136982657Y-108729475D01*
X136650000Y-108729475D01*
X136650000Y-108459034D01*
X136770525Y-108517343D01*
X137787868Y-107500000D01*
X138212132Y-107500000D01*
X139229475Y-108517343D01*
X139485180Y-108393636D01*
X139714107Y-107757258D01*
X139682077Y-107081715D01*
X139485180Y-106606364D01*
X139229475Y-106482657D01*
X138212132Y-107500000D01*
X137787868Y-107500000D01*
X136770525Y-106482657D01*
X136650000Y-106540966D01*
X136650000Y-106270525D01*
X136982657Y-106270525D01*
X138000000Y-107287868D01*
X139017343Y-106270525D01*
X138893636Y-106014820D01*
X138257258Y-105785893D01*
X137581715Y-105817923D01*
X137106364Y-106014820D01*
X136982657Y-106270525D01*
X136650000Y-106270525D01*
X136650000Y-106103554D01*
X137103554Y-105650000D01*
X140296446Y-105650000D01*
X140750000Y-106103554D01*
X140750000Y-109300000D01*
X140769696Y-109397264D01*
X140835374Y-109488144D01*
X142435374Y-110888144D01*
X142521543Y-110937370D01*
X142600000Y-110950000D01*
X164500000Y-110950000D01*
X164597264Y-110930304D01*
X164653485Y-110897338D01*
X165553485Y-110197338D01*
X165618168Y-110122076D01*
X165650000Y-110000000D01*
X165650000Y-109720798D01*
X165961334Y-109720798D01*
X166066631Y-109960939D01*
X166648592Y-110164779D01*
X167264261Y-110130396D01*
X167673369Y-109960939D01*
X167778666Y-109720798D01*
X166870000Y-108812132D01*
X165961334Y-109720798D01*
X165650000Y-109720798D01*
X165650000Y-109543072D01*
X165685623Y-109507511D01*
X165695010Y-109484904D01*
X165749202Y-109508666D01*
X166657868Y-108600000D01*
X167082132Y-108600000D01*
X167990798Y-109508666D01*
X168230939Y-109403369D01*
X168434779Y-108821408D01*
X168400396Y-108205739D01*
X168230939Y-107796631D01*
X167990798Y-107691334D01*
X167082132Y-108600000D01*
X166657868Y-108600000D01*
X165749202Y-107691334D01*
X165695482Y-107714889D01*
X165687205Y-107694857D01*
X165650000Y-107657587D01*
X165650000Y-107479202D01*
X165961334Y-107479202D01*
X166870000Y-108387868D01*
X167778666Y-107479202D01*
X167673369Y-107239061D01*
X167091408Y-107035221D01*
X166475739Y-107069604D01*
X166066631Y-107239061D01*
X165961334Y-107479202D01*
X165650000Y-107479202D01*
X165650000Y-103000000D01*
X165618539Y-102878589D01*
X165430000Y-102539219D01*
X165430000Y-101882500D01*
X165450000Y-101862500D01*
X165450000Y-100550000D01*
X165750000Y-100550000D01*
X165750000Y-101862500D01*
X165887500Y-102000000D01*
X166109402Y-102000000D01*
X166311550Y-101916267D01*
X166466268Y-101761550D01*
X166512473Y-101650000D01*
X166712500Y-101650000D01*
X166850000Y-101512500D01*
X166850000Y-100550000D01*
X167150000Y-100550000D01*
X167150000Y-101512500D01*
X167287500Y-101650000D01*
X167709402Y-101650000D01*
X167911550Y-101566267D01*
X168066268Y-101411550D01*
X168150000Y-101209402D01*
X168150000Y-100687500D01*
X168012500Y-100550000D01*
X167150000Y-100550000D01*
X166850000Y-100550000D01*
X165750000Y-100550000D01*
X165450000Y-100550000D01*
X165430000Y-100550000D01*
X165430000Y-100250000D01*
X165450000Y-100250000D01*
X165450000Y-98937500D01*
X165750000Y-98937500D01*
X165750000Y-100250000D01*
X166850000Y-100250000D01*
X166850000Y-99287500D01*
X167150000Y-99287500D01*
X167150000Y-100250000D01*
X168012500Y-100250000D01*
X168150000Y-100112500D01*
X168150000Y-99590598D01*
X168066268Y-99388450D01*
X167911550Y-99233733D01*
X167709402Y-99150000D01*
X167287500Y-99150000D01*
X167150000Y-99287500D01*
X166850000Y-99287500D01*
X166712500Y-99150000D01*
X166512473Y-99150000D01*
X166466268Y-99038450D01*
X166311550Y-98883733D01*
X166109402Y-98800000D01*
X165887500Y-98800000D01*
X165750000Y-98937500D01*
X165450000Y-98937500D01*
X165312500Y-98800000D01*
X165150000Y-98800000D01*
X165150000Y-95803554D01*
X165803554Y-95150000D01*
X168496446Y-95150000D01*
X168950000Y-95603554D01*
X168950000Y-95603554D01*
G37*
X168950000Y-95603554D02*
X168950000Y-114183504D01*
X166608933Y-116150000D01*
X162567295Y-116150000D01*
X162625925Y-116038057D01*
X161500000Y-114912132D01*
X160374075Y-116038057D01*
X160432705Y-116150000D01*
X138487695Y-116150000D01*
X136650000Y-114679844D01*
X136650000Y-114406915D01*
X159636665Y-114406915D01*
X159666344Y-115142292D01*
X159890662Y-115683843D01*
X160161943Y-115825925D01*
X161287868Y-114700000D01*
X161712132Y-114700000D01*
X162838057Y-115825925D01*
X163109338Y-115683843D01*
X163363335Y-114993085D01*
X163333656Y-114257708D01*
X163109338Y-113716157D01*
X162838057Y-113574075D01*
X161712132Y-114700000D01*
X161287868Y-114700000D01*
X160161943Y-113574075D01*
X159890662Y-113716157D01*
X159636665Y-114406915D01*
X136650000Y-114406915D01*
X136650000Y-113361943D01*
X160374075Y-113361943D01*
X161500000Y-114487868D01*
X162625925Y-113361943D01*
X162483843Y-113090662D01*
X161793085Y-112836665D01*
X161057708Y-112866344D01*
X160516157Y-113090662D01*
X160374075Y-113361943D01*
X136650000Y-113361943D01*
X136650000Y-108729475D01*
X136982657Y-108729475D01*
X137106364Y-108985180D01*
X137742742Y-109214107D01*
X138418285Y-109182077D01*
X138893636Y-108985180D01*
X139017343Y-108729475D01*
X138000000Y-107712132D01*
X136982657Y-108729475D01*
X136650000Y-108729475D01*
X136650000Y-108459034D01*
X136770525Y-108517343D01*
X137787868Y-107500000D01*
X138212132Y-107500000D01*
X139229475Y-108517343D01*
X139485180Y-108393636D01*
X139714107Y-107757258D01*
X139682077Y-107081715D01*
X139485180Y-106606364D01*
X139229475Y-106482657D01*
X138212132Y-107500000D01*
X137787868Y-107500000D01*
X136770525Y-106482657D01*
X136650000Y-106540966D01*
X136650000Y-106270525D01*
X136982657Y-106270525D01*
X138000000Y-107287868D01*
X139017343Y-106270525D01*
X138893636Y-106014820D01*
X138257258Y-105785893D01*
X137581715Y-105817923D01*
X137106364Y-106014820D01*
X136982657Y-106270525D01*
X136650000Y-106270525D01*
X136650000Y-106103554D01*
X137103554Y-105650000D01*
X140296446Y-105650000D01*
X140750000Y-106103554D01*
X140750000Y-109300000D01*
X140769696Y-109397264D01*
X140835374Y-109488144D01*
X142435374Y-110888144D01*
X142521543Y-110937370D01*
X142600000Y-110950000D01*
X164500000Y-110950000D01*
X164597264Y-110930304D01*
X164653485Y-110897338D01*
X165553485Y-110197338D01*
X165618168Y-110122076D01*
X165650000Y-110000000D01*
X165650000Y-109720798D01*
X165961334Y-109720798D01*
X166066631Y-109960939D01*
X166648592Y-110164779D01*
X167264261Y-110130396D01*
X167673369Y-109960939D01*
X167778666Y-109720798D01*
X166870000Y-108812132D01*
X165961334Y-109720798D01*
X165650000Y-109720798D01*
X165650000Y-109543072D01*
X165685623Y-109507511D01*
X165695010Y-109484904D01*
X165749202Y-109508666D01*
X166657868Y-108600000D01*
X167082132Y-108600000D01*
X167990798Y-109508666D01*
X168230939Y-109403369D01*
X168434779Y-108821408D01*
X168400396Y-108205739D01*
X168230939Y-107796631D01*
X167990798Y-107691334D01*
X167082132Y-108600000D01*
X166657868Y-108600000D01*
X165749202Y-107691334D01*
X165695482Y-107714889D01*
X165687205Y-107694857D01*
X165650000Y-107657587D01*
X165650000Y-107479202D01*
X165961334Y-107479202D01*
X166870000Y-108387868D01*
X167778666Y-107479202D01*
X167673369Y-107239061D01*
X167091408Y-107035221D01*
X166475739Y-107069604D01*
X166066631Y-107239061D01*
X165961334Y-107479202D01*
X165650000Y-107479202D01*
X165650000Y-103000000D01*
X165618539Y-102878589D01*
X165430000Y-102539219D01*
X165430000Y-101882500D01*
X165450000Y-101862500D01*
X165450000Y-100550000D01*
X165750000Y-100550000D01*
X165750000Y-101862500D01*
X165887500Y-102000000D01*
X166109402Y-102000000D01*
X166311550Y-101916267D01*
X166466268Y-101761550D01*
X166512473Y-101650000D01*
X166712500Y-101650000D01*
X166850000Y-101512500D01*
X166850000Y-100550000D01*
X167150000Y-100550000D01*
X167150000Y-101512500D01*
X167287500Y-101650000D01*
X167709402Y-101650000D01*
X167911550Y-101566267D01*
X168066268Y-101411550D01*
X168150000Y-101209402D01*
X168150000Y-100687500D01*
X168012500Y-100550000D01*
X167150000Y-100550000D01*
X166850000Y-100550000D01*
X165750000Y-100550000D01*
X165450000Y-100550000D01*
X165430000Y-100550000D01*
X165430000Y-100250000D01*
X165450000Y-100250000D01*
X165450000Y-98937500D01*
X165750000Y-98937500D01*
X165750000Y-100250000D01*
X166850000Y-100250000D01*
X166850000Y-99287500D01*
X167150000Y-99287500D01*
X167150000Y-100250000D01*
X168012500Y-100250000D01*
X168150000Y-100112500D01*
X168150000Y-99590598D01*
X168066268Y-99388450D01*
X167911550Y-99233733D01*
X167709402Y-99150000D01*
X167287500Y-99150000D01*
X167150000Y-99287500D01*
X166850000Y-99287500D01*
X166712500Y-99150000D01*
X166512473Y-99150000D01*
X166466268Y-99038450D01*
X166311550Y-98883733D01*
X166109402Y-98800000D01*
X165887500Y-98800000D01*
X165750000Y-98937500D01*
X165450000Y-98937500D01*
X165312500Y-98800000D01*
X165150000Y-98800000D01*
X165150000Y-95803554D01*
X165803554Y-95150000D01*
X168496446Y-95150000D01*
X168950000Y-95603554D01*
M02*
