G04 #@! TF.FileFunction,Legend,Bot*
%FSLAX46Y46*%
G04 Gerber Fmt 4.6, Leading zero omitted, Abs format (unit mm)*
G04 Created by KiCad (PCBNEW 4.0.1-stable) date 3/11/2016 2:16:34 AM*
%MOMM*%
G01*
G04 APERTURE LIST*
%ADD10C,0.100000*%
%ADD11C,5.000000*%
%ADD12C,0.300000*%
%ADD13C,0.002540*%
G04 APERTURE END LIST*
D10*
D11*
X156000000Y-95700000D02*
X140000000Y-95700000D01*
D12*
X167995240Y-112904762D02*
X167995240Y-110904762D01*
X166852382Y-112904762D01*
X166852382Y-110904762D01*
X165900002Y-112904762D02*
X165900002Y-111571429D01*
X165900002Y-110904762D02*
X165995240Y-111000000D01*
X165900002Y-111095238D01*
X165804763Y-111000000D01*
X165900002Y-110904762D01*
X165900002Y-111095238D01*
X164090478Y-111571429D02*
X164090478Y-113190476D01*
X164185716Y-113380952D01*
X164280954Y-113476190D01*
X164471430Y-113571429D01*
X164757144Y-113571429D01*
X164947621Y-113476190D01*
X164090478Y-112809524D02*
X164280954Y-112904762D01*
X164661906Y-112904762D01*
X164852382Y-112809524D01*
X164947621Y-112714286D01*
X165042859Y-112523810D01*
X165042859Y-111952381D01*
X164947621Y-111761905D01*
X164852382Y-111666667D01*
X164661906Y-111571429D01*
X164280954Y-111571429D01*
X164090478Y-111666667D01*
X163138097Y-112904762D02*
X163138097Y-110904762D01*
X162280954Y-112904762D02*
X162280954Y-111857143D01*
X162376192Y-111666667D01*
X162566668Y-111571429D01*
X162852382Y-111571429D01*
X163042858Y-111666667D01*
X163138097Y-111761905D01*
X161614287Y-111571429D02*
X160852382Y-111571429D01*
X161328573Y-110904762D02*
X161328573Y-112619048D01*
X161233334Y-112809524D01*
X161042858Y-112904762D01*
X160852382Y-112904762D01*
X160185716Y-112904762D02*
X160185716Y-111571429D01*
X160185716Y-111761905D02*
X160090477Y-111666667D01*
X159900001Y-111571429D01*
X159614287Y-111571429D01*
X159423811Y-111666667D01*
X159328573Y-111857143D01*
X159328573Y-112904762D01*
X159328573Y-111857143D02*
X159233335Y-111666667D01*
X159042858Y-111571429D01*
X158757144Y-111571429D01*
X158566668Y-111666667D01*
X158471430Y-111857143D01*
X158471430Y-112904762D01*
X156757144Y-112809524D02*
X156947620Y-112904762D01*
X157328572Y-112904762D01*
X157519049Y-112809524D01*
X157614287Y-112619048D01*
X157614287Y-111857143D01*
X157519049Y-111666667D01*
X157328572Y-111571429D01*
X156947620Y-111571429D01*
X156757144Y-111666667D01*
X156661906Y-111857143D01*
X156661906Y-112047619D01*
X157614287Y-112238095D01*
X154947620Y-112809524D02*
X155138096Y-112904762D01*
X155519048Y-112904762D01*
X155709524Y-112809524D01*
X155804763Y-112714286D01*
X155900001Y-112523810D01*
X155900001Y-111952381D01*
X155804763Y-111761905D01*
X155709524Y-111666667D01*
X155519048Y-111571429D01*
X155138096Y-111571429D01*
X154947620Y-111666667D01*
X154090477Y-112904762D02*
X154090477Y-110904762D01*
X153233334Y-112904762D02*
X153233334Y-111857143D01*
X153328572Y-111666667D01*
X153519048Y-111571429D01*
X153804762Y-111571429D01*
X153995238Y-111666667D01*
X154090477Y-111761905D01*
X151423810Y-112904762D02*
X151423810Y-111857143D01*
X151519048Y-111666667D01*
X151709524Y-111571429D01*
X152090476Y-111571429D01*
X152280953Y-111666667D01*
X151423810Y-112809524D02*
X151614286Y-112904762D01*
X152090476Y-112904762D01*
X152280953Y-112809524D01*
X152376191Y-112619048D01*
X152376191Y-112428571D01*
X152280953Y-112238095D01*
X152090476Y-112142857D01*
X151614286Y-112142857D01*
X151423810Y-112047619D01*
X150471429Y-111571429D02*
X150471429Y-112904762D01*
X150471429Y-111761905D02*
X150376190Y-111666667D01*
X150185714Y-111571429D01*
X149900000Y-111571429D01*
X149709524Y-111666667D01*
X149614286Y-111857143D01*
X149614286Y-112904762D01*
X148661905Y-112904762D02*
X148661905Y-111571429D01*
X148661905Y-110904762D02*
X148757143Y-111000000D01*
X148661905Y-111095238D01*
X148566666Y-111000000D01*
X148661905Y-110904762D01*
X148661905Y-111095238D01*
X146852381Y-112809524D02*
X147042857Y-112904762D01*
X147423809Y-112904762D01*
X147614285Y-112809524D01*
X147709524Y-112714286D01*
X147804762Y-112523810D01*
X147804762Y-111952381D01*
X147709524Y-111761905D01*
X147614285Y-111666667D01*
X147423809Y-111571429D01*
X147042857Y-111571429D01*
X146852381Y-111666667D01*
X144566666Y-111095238D02*
X144471428Y-111000000D01*
X144280951Y-110904762D01*
X143804761Y-110904762D01*
X143614285Y-111000000D01*
X143519047Y-111095238D01*
X143423808Y-111285714D01*
X143423808Y-111476190D01*
X143519047Y-111761905D01*
X144661904Y-112904762D01*
X143423808Y-112904762D01*
X142185713Y-110904762D02*
X141995237Y-110904762D01*
X141804761Y-111000000D01*
X141709523Y-111095238D01*
X141614285Y-111285714D01*
X141519046Y-111666667D01*
X141519046Y-112142857D01*
X141614285Y-112523810D01*
X141709523Y-112714286D01*
X141804761Y-112809524D01*
X141995237Y-112904762D01*
X142185713Y-112904762D01*
X142376189Y-112809524D01*
X142471427Y-112714286D01*
X142566666Y-112523810D01*
X142661904Y-112142857D01*
X142661904Y-111666667D01*
X142566666Y-111285714D01*
X142471427Y-111095238D01*
X142376189Y-111000000D01*
X142185713Y-110904762D01*
X139614284Y-112904762D02*
X140757142Y-112904762D01*
X140185713Y-112904762D02*
X140185713Y-110904762D01*
X140376189Y-111190476D01*
X140566665Y-111380952D01*
X140757142Y-111476190D01*
X137899999Y-110904762D02*
X138280951Y-110904762D01*
X138471427Y-111000000D01*
X138566665Y-111095238D01*
X138757142Y-111380952D01*
X138852380Y-111761905D01*
X138852380Y-112523810D01*
X138757142Y-112714286D01*
X138661903Y-112809524D01*
X138471427Y-112904762D01*
X138090475Y-112904762D01*
X137899999Y-112809524D01*
X137804761Y-112714286D01*
X137709522Y-112523810D01*
X137709522Y-112047619D01*
X137804761Y-111857143D01*
X137899999Y-111761905D01*
X138090475Y-111666667D01*
X138471427Y-111666667D01*
X138661903Y-111761905D01*
X138757142Y-111857143D01*
X138852380Y-112047619D01*
X166214288Y-100709524D02*
X165928573Y-100804762D01*
X165452383Y-100804762D01*
X165261907Y-100709524D01*
X165166669Y-100614286D01*
X165071430Y-100423810D01*
X165071430Y-100233333D01*
X165166669Y-100042857D01*
X165261907Y-99947619D01*
X165452383Y-99852381D01*
X165833335Y-99757143D01*
X166023811Y-99661905D01*
X166119050Y-99566667D01*
X166214288Y-99376190D01*
X166214288Y-99185714D01*
X166119050Y-98995238D01*
X166023811Y-98900000D01*
X165833335Y-98804762D01*
X165357145Y-98804762D01*
X165071430Y-98900000D01*
X164214288Y-100804762D02*
X164214288Y-99471429D01*
X164214288Y-98804762D02*
X164309526Y-98900000D01*
X164214288Y-98995238D01*
X164119049Y-98900000D01*
X164214288Y-98804762D01*
X164214288Y-98995238D01*
X163261907Y-100804762D02*
X163261907Y-99471429D01*
X163261907Y-99661905D02*
X163166668Y-99566667D01*
X162976192Y-99471429D01*
X162690478Y-99471429D01*
X162500002Y-99566667D01*
X162404764Y-99757143D01*
X162404764Y-100804762D01*
X162404764Y-99757143D02*
X162309526Y-99566667D01*
X162119049Y-99471429D01*
X161833335Y-99471429D01*
X161642859Y-99566667D01*
X161547621Y-99757143D01*
X161547621Y-100804762D01*
X160595240Y-99471429D02*
X160595240Y-101471429D01*
X160595240Y-99566667D02*
X160404763Y-99471429D01*
X160023811Y-99471429D01*
X159833335Y-99566667D01*
X159738097Y-99661905D01*
X159642859Y-99852381D01*
X159642859Y-100423810D01*
X159738097Y-100614286D01*
X159833335Y-100709524D01*
X160023811Y-100804762D01*
X160404763Y-100804762D01*
X160595240Y-100709524D01*
X158500001Y-100804762D02*
X158690477Y-100709524D01*
X158785716Y-100519048D01*
X158785716Y-98804762D01*
X156976192Y-100709524D02*
X157166668Y-100804762D01*
X157547620Y-100804762D01*
X157738097Y-100709524D01*
X157833335Y-100519048D01*
X157833335Y-99757143D01*
X157738097Y-99566667D01*
X157547620Y-99471429D01*
X157166668Y-99471429D01*
X156976192Y-99566667D01*
X156880954Y-99757143D01*
X156880954Y-99947619D01*
X157833335Y-100138095D01*
X153928572Y-98804762D02*
X153928572Y-100233333D01*
X154023810Y-100519048D01*
X154214286Y-100709524D01*
X154500001Y-100804762D01*
X154690477Y-100804762D01*
X152690476Y-100804762D02*
X152880952Y-100709524D01*
X152976191Y-100614286D01*
X153071429Y-100423810D01*
X153071429Y-99852381D01*
X152976191Y-99661905D01*
X152880952Y-99566667D01*
X152690476Y-99471429D01*
X152404762Y-99471429D01*
X152214286Y-99566667D01*
X152119048Y-99661905D01*
X152023810Y-99852381D01*
X152023810Y-100423810D01*
X152119048Y-100614286D01*
X152214286Y-100709524D01*
X152404762Y-100804762D01*
X152690476Y-100804762D01*
X150309524Y-99471429D02*
X150309524Y-100804762D01*
X151166667Y-99471429D02*
X151166667Y-100519048D01*
X151071428Y-100709524D01*
X150880952Y-100804762D01*
X150595238Y-100804762D01*
X150404762Y-100709524D01*
X150309524Y-100614286D01*
X149071428Y-100804762D02*
X149261904Y-100709524D01*
X149357143Y-100519048D01*
X149357143Y-98804762D01*
X147547619Y-100709524D02*
X147738095Y-100804762D01*
X148119047Y-100804762D01*
X148309524Y-100709524D01*
X148404762Y-100519048D01*
X148404762Y-99757143D01*
X148309524Y-99566667D01*
X148119047Y-99471429D01*
X147738095Y-99471429D01*
X147547619Y-99566667D01*
X147452381Y-99757143D01*
X147452381Y-99947619D01*
X148404762Y-100138095D01*
X145357142Y-98804762D02*
X144214285Y-98804762D01*
X144785713Y-100804762D02*
X144785713Y-98804762D01*
X143547618Y-100804762D02*
X143547618Y-98804762D01*
X142690475Y-100804762D02*
X142690475Y-99757143D01*
X142785713Y-99566667D01*
X142976189Y-99471429D01*
X143261903Y-99471429D01*
X143452379Y-99566667D01*
X143547618Y-99661905D01*
X141738094Y-100804762D02*
X141738094Y-99471429D01*
X141738094Y-98804762D02*
X141833332Y-98900000D01*
X141738094Y-98995238D01*
X141642855Y-98900000D01*
X141738094Y-98804762D01*
X141738094Y-98995238D01*
X140023808Y-100709524D02*
X140214284Y-100804762D01*
X140595236Y-100804762D01*
X140785713Y-100709524D01*
X140880951Y-100519048D01*
X140880951Y-99757143D01*
X140785713Y-99566667D01*
X140595236Y-99471429D01*
X140214284Y-99471429D01*
X140023808Y-99566667D01*
X139928570Y-99757143D01*
X139928570Y-99947619D01*
X140880951Y-100138095D01*
X139357141Y-99471429D02*
X138595236Y-99471429D01*
X139071427Y-100804762D02*
X139071427Y-99090476D01*
X138976188Y-98900000D01*
X138785712Y-98804762D01*
X138595236Y-98804762D01*
D13*
G36*
X157201680Y-104597920D02*
X157514100Y-104483620D01*
X157829060Y-104369320D01*
X157857000Y-104262640D01*
X157872240Y-104214380D01*
X157890020Y-104161040D01*
X157912880Y-104097540D01*
X157943360Y-104016260D01*
X157986540Y-103912120D01*
X158029720Y-103807980D01*
X158034800Y-103785120D01*
X158034800Y-103759720D01*
X158024640Y-103721620D01*
X158006860Y-103668280D01*
X157971300Y-103592080D01*
X157923040Y-103487940D01*
X157910340Y-103457460D01*
X157862080Y-103358400D01*
X157823980Y-103269500D01*
X157793500Y-103198380D01*
X157773180Y-103152660D01*
X157770640Y-103137420D01*
X157783340Y-103119640D01*
X157818900Y-103076460D01*
X157874780Y-103018040D01*
X157945900Y-102944380D01*
X158009400Y-102880880D01*
X158248160Y-102644660D01*
X158558040Y-102791980D01*
X158867920Y-102936760D01*
X158893320Y-102924060D01*
X158893320Y-104956060D01*
X158908560Y-105133860D01*
X158961900Y-105337060D01*
X159045720Y-105519940D01*
X159154940Y-105679960D01*
X159284480Y-105817120D01*
X159434340Y-105931420D01*
X159596900Y-106015240D01*
X159772160Y-106076200D01*
X159955040Y-106106680D01*
X160140460Y-106109220D01*
X160325880Y-106078740D01*
X160508760Y-106017780D01*
X160681480Y-105923800D01*
X160846580Y-105796800D01*
X160877060Y-105766320D01*
X161011680Y-105606300D01*
X161113280Y-105431040D01*
X161181860Y-105248160D01*
X161214880Y-105057660D01*
X161219960Y-104867160D01*
X161192020Y-104679200D01*
X161131060Y-104498860D01*
X161042160Y-104328680D01*
X160925320Y-104173740D01*
X160778000Y-104036580D01*
X160602740Y-103922280D01*
X160549400Y-103894340D01*
X160351280Y-103823220D01*
X160150620Y-103787660D01*
X159942340Y-103792740D01*
X159728980Y-103835920D01*
X159701040Y-103843540D01*
X159515620Y-103922280D01*
X159347980Y-104031500D01*
X159198120Y-104171200D01*
X159073660Y-104331220D01*
X158979680Y-104511560D01*
X158959360Y-104567440D01*
X158908560Y-104763020D01*
X158893320Y-104956060D01*
X158893320Y-102924060D01*
X159045720Y-102847860D01*
X159139700Y-102804680D01*
X159236220Y-102761500D01*
X159322580Y-102728480D01*
X159350520Y-102718320D01*
X159477520Y-102677680D01*
X159594360Y-102347480D01*
X159708660Y-102014740D01*
X160056640Y-102014740D01*
X160191260Y-102017280D01*
X160290320Y-102019820D01*
X160358900Y-102022360D01*
X160399540Y-102029980D01*
X160414780Y-102037600D01*
X160417320Y-102040140D01*
X160424940Y-102065540D01*
X160445260Y-102121420D01*
X160473200Y-102200160D01*
X160506220Y-102296680D01*
X160531620Y-102367800D01*
X160635760Y-102670060D01*
X160732280Y-102705620D01*
X160788160Y-102728480D01*
X160866900Y-102761500D01*
X160960880Y-102804680D01*
X161037080Y-102840240D01*
X161245360Y-102941840D01*
X161466340Y-102837700D01*
X161560320Y-102791980D01*
X161654300Y-102751340D01*
X161730500Y-102715780D01*
X161778760Y-102692920D01*
X161872740Y-102652280D01*
X162116580Y-102896120D01*
X162362960Y-103139960D01*
X162215640Y-103449840D01*
X162070860Y-103754640D01*
X162162300Y-103934980D01*
X162208020Y-104028960D01*
X162248660Y-104125480D01*
X162284220Y-104211840D01*
X162294380Y-104242320D01*
X162337560Y-104369320D01*
X162670300Y-104483620D01*
X163005580Y-104600460D01*
X163000500Y-104950980D01*
X162995420Y-105301500D01*
X162916680Y-105329440D01*
X162751580Y-105385320D01*
X162622040Y-105428500D01*
X162520440Y-105464060D01*
X162444240Y-105494540D01*
X162390900Y-105517400D01*
X162355340Y-105537720D01*
X162332480Y-105555500D01*
X162319780Y-105573280D01*
X162314700Y-105591060D01*
X162312160Y-105598680D01*
X162299460Y-105639320D01*
X162271520Y-105707900D01*
X162233420Y-105791720D01*
X162190240Y-105885700D01*
X162182620Y-105900940D01*
X162063240Y-106137160D01*
X162210560Y-106444500D01*
X162357880Y-106751840D01*
X162111500Y-106998220D01*
X161867660Y-107244600D01*
X161562860Y-107102360D01*
X161463800Y-107054100D01*
X161374900Y-107013460D01*
X161303780Y-106980440D01*
X161258060Y-106962660D01*
X161242820Y-106957580D01*
X161217420Y-106965200D01*
X161166620Y-106985520D01*
X161100580Y-107016000D01*
X161082800Y-107023620D01*
X160988820Y-107064260D01*
X160882140Y-107107440D01*
X160793240Y-107135380D01*
X160640840Y-107181100D01*
X160559560Y-107407160D01*
X160524000Y-107503680D01*
X160490980Y-107595120D01*
X160463040Y-107673860D01*
X160445260Y-107719580D01*
X160409700Y-107805940D01*
X160059180Y-107813560D01*
X159706120Y-107818640D01*
X159652780Y-107666240D01*
X159617220Y-107569720D01*
X159579120Y-107460500D01*
X159541020Y-107358900D01*
X159538480Y-107351280D01*
X159477520Y-107188720D01*
X159312420Y-107135380D01*
X159213360Y-107099820D01*
X159109220Y-107061720D01*
X159017780Y-107023620D01*
X159007620Y-107018540D01*
X158870460Y-106955040D01*
X158560580Y-107102360D01*
X158250700Y-107252220D01*
X158009400Y-107010920D01*
X157930660Y-106932180D01*
X157864620Y-106863600D01*
X157811280Y-106807720D01*
X157778260Y-106769620D01*
X157770640Y-106756920D01*
X157778260Y-106734060D01*
X157801120Y-106683260D01*
X157834140Y-106607060D01*
X157877320Y-106515620D01*
X157915420Y-106434340D01*
X158062740Y-106132080D01*
X157999240Y-106002540D01*
X157963680Y-105921260D01*
X157923040Y-105822200D01*
X157884940Y-105720600D01*
X157877320Y-105700280D01*
X157818900Y-105525020D01*
X157516640Y-105415800D01*
X157211840Y-105301500D01*
X157206760Y-104950980D01*
X157201680Y-104597920D01*
X157201680Y-104597920D01*
X157201680Y-104597920D01*
G37*
X157201680Y-104597920D02*
X157514100Y-104483620D01*
X157829060Y-104369320D01*
X157857000Y-104262640D01*
X157872240Y-104214380D01*
X157890020Y-104161040D01*
X157912880Y-104097540D01*
X157943360Y-104016260D01*
X157986540Y-103912120D01*
X158029720Y-103807980D01*
X158034800Y-103785120D01*
X158034800Y-103759720D01*
X158024640Y-103721620D01*
X158006860Y-103668280D01*
X157971300Y-103592080D01*
X157923040Y-103487940D01*
X157910340Y-103457460D01*
X157862080Y-103358400D01*
X157823980Y-103269500D01*
X157793500Y-103198380D01*
X157773180Y-103152660D01*
X157770640Y-103137420D01*
X157783340Y-103119640D01*
X157818900Y-103076460D01*
X157874780Y-103018040D01*
X157945900Y-102944380D01*
X158009400Y-102880880D01*
X158248160Y-102644660D01*
X158558040Y-102791980D01*
X158867920Y-102936760D01*
X158893320Y-102924060D01*
X158893320Y-104956060D01*
X158908560Y-105133860D01*
X158961900Y-105337060D01*
X159045720Y-105519940D01*
X159154940Y-105679960D01*
X159284480Y-105817120D01*
X159434340Y-105931420D01*
X159596900Y-106015240D01*
X159772160Y-106076200D01*
X159955040Y-106106680D01*
X160140460Y-106109220D01*
X160325880Y-106078740D01*
X160508760Y-106017780D01*
X160681480Y-105923800D01*
X160846580Y-105796800D01*
X160877060Y-105766320D01*
X161011680Y-105606300D01*
X161113280Y-105431040D01*
X161181860Y-105248160D01*
X161214880Y-105057660D01*
X161219960Y-104867160D01*
X161192020Y-104679200D01*
X161131060Y-104498860D01*
X161042160Y-104328680D01*
X160925320Y-104173740D01*
X160778000Y-104036580D01*
X160602740Y-103922280D01*
X160549400Y-103894340D01*
X160351280Y-103823220D01*
X160150620Y-103787660D01*
X159942340Y-103792740D01*
X159728980Y-103835920D01*
X159701040Y-103843540D01*
X159515620Y-103922280D01*
X159347980Y-104031500D01*
X159198120Y-104171200D01*
X159073660Y-104331220D01*
X158979680Y-104511560D01*
X158959360Y-104567440D01*
X158908560Y-104763020D01*
X158893320Y-104956060D01*
X158893320Y-102924060D01*
X159045720Y-102847860D01*
X159139700Y-102804680D01*
X159236220Y-102761500D01*
X159322580Y-102728480D01*
X159350520Y-102718320D01*
X159477520Y-102677680D01*
X159594360Y-102347480D01*
X159708660Y-102014740D01*
X160056640Y-102014740D01*
X160191260Y-102017280D01*
X160290320Y-102019820D01*
X160358900Y-102022360D01*
X160399540Y-102029980D01*
X160414780Y-102037600D01*
X160417320Y-102040140D01*
X160424940Y-102065540D01*
X160445260Y-102121420D01*
X160473200Y-102200160D01*
X160506220Y-102296680D01*
X160531620Y-102367800D01*
X160635760Y-102670060D01*
X160732280Y-102705620D01*
X160788160Y-102728480D01*
X160866900Y-102761500D01*
X160960880Y-102804680D01*
X161037080Y-102840240D01*
X161245360Y-102941840D01*
X161466340Y-102837700D01*
X161560320Y-102791980D01*
X161654300Y-102751340D01*
X161730500Y-102715780D01*
X161778760Y-102692920D01*
X161872740Y-102652280D01*
X162116580Y-102896120D01*
X162362960Y-103139960D01*
X162215640Y-103449840D01*
X162070860Y-103754640D01*
X162162300Y-103934980D01*
X162208020Y-104028960D01*
X162248660Y-104125480D01*
X162284220Y-104211840D01*
X162294380Y-104242320D01*
X162337560Y-104369320D01*
X162670300Y-104483620D01*
X163005580Y-104600460D01*
X163000500Y-104950980D01*
X162995420Y-105301500D01*
X162916680Y-105329440D01*
X162751580Y-105385320D01*
X162622040Y-105428500D01*
X162520440Y-105464060D01*
X162444240Y-105494540D01*
X162390900Y-105517400D01*
X162355340Y-105537720D01*
X162332480Y-105555500D01*
X162319780Y-105573280D01*
X162314700Y-105591060D01*
X162312160Y-105598680D01*
X162299460Y-105639320D01*
X162271520Y-105707900D01*
X162233420Y-105791720D01*
X162190240Y-105885700D01*
X162182620Y-105900940D01*
X162063240Y-106137160D01*
X162210560Y-106444500D01*
X162357880Y-106751840D01*
X162111500Y-106998220D01*
X161867660Y-107244600D01*
X161562860Y-107102360D01*
X161463800Y-107054100D01*
X161374900Y-107013460D01*
X161303780Y-106980440D01*
X161258060Y-106962660D01*
X161242820Y-106957580D01*
X161217420Y-106965200D01*
X161166620Y-106985520D01*
X161100580Y-107016000D01*
X161082800Y-107023620D01*
X160988820Y-107064260D01*
X160882140Y-107107440D01*
X160793240Y-107135380D01*
X160640840Y-107181100D01*
X160559560Y-107407160D01*
X160524000Y-107503680D01*
X160490980Y-107595120D01*
X160463040Y-107673860D01*
X160445260Y-107719580D01*
X160409700Y-107805940D01*
X160059180Y-107813560D01*
X159706120Y-107818640D01*
X159652780Y-107666240D01*
X159617220Y-107569720D01*
X159579120Y-107460500D01*
X159541020Y-107358900D01*
X159538480Y-107351280D01*
X159477520Y-107188720D01*
X159312420Y-107135380D01*
X159213360Y-107099820D01*
X159109220Y-107061720D01*
X159017780Y-107023620D01*
X159007620Y-107018540D01*
X158870460Y-106955040D01*
X158560580Y-107102360D01*
X158250700Y-107252220D01*
X158009400Y-107010920D01*
X157930660Y-106932180D01*
X157864620Y-106863600D01*
X157811280Y-106807720D01*
X157778260Y-106769620D01*
X157770640Y-106756920D01*
X157778260Y-106734060D01*
X157801120Y-106683260D01*
X157834140Y-106607060D01*
X157877320Y-106515620D01*
X157915420Y-106434340D01*
X158062740Y-106132080D01*
X157999240Y-106002540D01*
X157963680Y-105921260D01*
X157923040Y-105822200D01*
X157884940Y-105720600D01*
X157877320Y-105700280D01*
X157818900Y-105525020D01*
X157516640Y-105415800D01*
X157211840Y-105301500D01*
X157206760Y-104950980D01*
X157201680Y-104597920D01*
X157201680Y-104597920D01*
G36*
X154958860Y-107915160D02*
X155035060Y-107734820D01*
X155108720Y-107557020D01*
X155304300Y-107562100D01*
X155499880Y-107564640D01*
X155631960Y-107432560D01*
X155764040Y-107297940D01*
X155758960Y-107132840D01*
X155756420Y-107054100D01*
X155753880Y-106985520D01*
X155748800Y-106944880D01*
X155746260Y-106937260D01*
X155751340Y-106922020D01*
X155774200Y-106904240D01*
X155817380Y-106878840D01*
X155888500Y-106848360D01*
X155906280Y-106840740D01*
X155906280Y-108346960D01*
X155918980Y-108489200D01*
X155962160Y-108628900D01*
X156038360Y-108758440D01*
X156122180Y-108852420D01*
X156241560Y-108941320D01*
X156363480Y-108997200D01*
X156500640Y-109022600D01*
X156607320Y-109022600D01*
X156747020Y-109004820D01*
X156866400Y-108961640D01*
X156973080Y-108890520D01*
X157064520Y-108801620D01*
X157155960Y-108677160D01*
X157211840Y-108547620D01*
X157234700Y-108413000D01*
X157229620Y-108280920D01*
X157199140Y-108153920D01*
X157143260Y-108037080D01*
X157064520Y-107930400D01*
X156968000Y-107838960D01*
X156856240Y-107767840D01*
X156731780Y-107722120D01*
X156597160Y-107701800D01*
X156454920Y-107714500D01*
X156307600Y-107760220D01*
X156292360Y-107765300D01*
X156160280Y-107846580D01*
X156053600Y-107950720D01*
X155974860Y-108072640D01*
X155926600Y-108207260D01*
X155906280Y-108346960D01*
X155906280Y-106840740D01*
X155990100Y-106805180D01*
X156081540Y-106767080D01*
X156104400Y-106779780D01*
X156142500Y-106812800D01*
X156193300Y-106866140D01*
X156223780Y-106904240D01*
X156345700Y-107049020D01*
X156520960Y-107046480D01*
X156693680Y-107043940D01*
X156835920Y-106904240D01*
X156899420Y-106843280D01*
X156950220Y-106797560D01*
X156985780Y-106769620D01*
X156998480Y-106764540D01*
X157023880Y-106772160D01*
X157077220Y-106789940D01*
X157148340Y-106815340D01*
X157199140Y-106835660D01*
X157382020Y-106904240D01*
X157376940Y-107099820D01*
X157371860Y-107292860D01*
X157506480Y-107430020D01*
X157643640Y-107567180D01*
X157839220Y-107559560D01*
X158034800Y-107551940D01*
X158111000Y-107734820D01*
X158184660Y-107917700D01*
X158072900Y-108016760D01*
X158011940Y-108070100D01*
X157961140Y-108115820D01*
X157925580Y-108143760D01*
X157923040Y-108143760D01*
X157905260Y-108161540D01*
X157895100Y-108192020D01*
X157890020Y-108240280D01*
X157887480Y-108313940D01*
X157884940Y-108359660D01*
X157884940Y-108547620D01*
X158032260Y-108684780D01*
X158182120Y-108821940D01*
X158105920Y-108997200D01*
X158029720Y-109175000D01*
X157839220Y-109167380D01*
X157648720Y-109162300D01*
X157509020Y-109302000D01*
X157369320Y-109441700D01*
X157369320Y-109639820D01*
X157369320Y-109835400D01*
X157194060Y-109903980D01*
X157021340Y-109972560D01*
X156891800Y-109832860D01*
X156762260Y-109693160D01*
X156571760Y-109690620D01*
X156381260Y-109685540D01*
X156259340Y-109825240D01*
X156203460Y-109883660D01*
X156155200Y-109931920D01*
X156119640Y-109959860D01*
X156109480Y-109962400D01*
X156079000Y-109954780D01*
X156023120Y-109937000D01*
X155952000Y-109909060D01*
X155924060Y-109896360D01*
X155766580Y-109830320D01*
X155771660Y-109637280D01*
X155776740Y-109441700D01*
X155634500Y-109302000D01*
X155494800Y-109159760D01*
X155306840Y-109172460D01*
X155118880Y-109185160D01*
X155047760Y-109017520D01*
X155017280Y-108941320D01*
X154991880Y-108877820D01*
X154979180Y-108834640D01*
X154976640Y-108824480D01*
X154989340Y-108804160D01*
X155027440Y-108760980D01*
X155080780Y-108710180D01*
X155113800Y-108679700D01*
X155250960Y-108555240D01*
X155250960Y-108367280D01*
X155250960Y-108176780D01*
X155103640Y-108044700D01*
X154958860Y-107915160D01*
X154958860Y-107915160D01*
X154958860Y-107915160D01*
G37*
X154958860Y-107915160D02*
X155035060Y-107734820D01*
X155108720Y-107557020D01*
X155304300Y-107562100D01*
X155499880Y-107564640D01*
X155631960Y-107432560D01*
X155764040Y-107297940D01*
X155758960Y-107132840D01*
X155756420Y-107054100D01*
X155753880Y-106985520D01*
X155748800Y-106944880D01*
X155746260Y-106937260D01*
X155751340Y-106922020D01*
X155774200Y-106904240D01*
X155817380Y-106878840D01*
X155888500Y-106848360D01*
X155906280Y-106840740D01*
X155906280Y-108346960D01*
X155918980Y-108489200D01*
X155962160Y-108628900D01*
X156038360Y-108758440D01*
X156122180Y-108852420D01*
X156241560Y-108941320D01*
X156363480Y-108997200D01*
X156500640Y-109022600D01*
X156607320Y-109022600D01*
X156747020Y-109004820D01*
X156866400Y-108961640D01*
X156973080Y-108890520D01*
X157064520Y-108801620D01*
X157155960Y-108677160D01*
X157211840Y-108547620D01*
X157234700Y-108413000D01*
X157229620Y-108280920D01*
X157199140Y-108153920D01*
X157143260Y-108037080D01*
X157064520Y-107930400D01*
X156968000Y-107838960D01*
X156856240Y-107767840D01*
X156731780Y-107722120D01*
X156597160Y-107701800D01*
X156454920Y-107714500D01*
X156307600Y-107760220D01*
X156292360Y-107765300D01*
X156160280Y-107846580D01*
X156053600Y-107950720D01*
X155974860Y-108072640D01*
X155926600Y-108207260D01*
X155906280Y-108346960D01*
X155906280Y-106840740D01*
X155990100Y-106805180D01*
X156081540Y-106767080D01*
X156104400Y-106779780D01*
X156142500Y-106812800D01*
X156193300Y-106866140D01*
X156223780Y-106904240D01*
X156345700Y-107049020D01*
X156520960Y-107046480D01*
X156693680Y-107043940D01*
X156835920Y-106904240D01*
X156899420Y-106843280D01*
X156950220Y-106797560D01*
X156985780Y-106769620D01*
X156998480Y-106764540D01*
X157023880Y-106772160D01*
X157077220Y-106789940D01*
X157148340Y-106815340D01*
X157199140Y-106835660D01*
X157382020Y-106904240D01*
X157376940Y-107099820D01*
X157371860Y-107292860D01*
X157506480Y-107430020D01*
X157643640Y-107567180D01*
X157839220Y-107559560D01*
X158034800Y-107551940D01*
X158111000Y-107734820D01*
X158184660Y-107917700D01*
X158072900Y-108016760D01*
X158011940Y-108070100D01*
X157961140Y-108115820D01*
X157925580Y-108143760D01*
X157923040Y-108143760D01*
X157905260Y-108161540D01*
X157895100Y-108192020D01*
X157890020Y-108240280D01*
X157887480Y-108313940D01*
X157884940Y-108359660D01*
X157884940Y-108547620D01*
X158032260Y-108684780D01*
X158182120Y-108821940D01*
X158105920Y-108997200D01*
X158029720Y-109175000D01*
X157839220Y-109167380D01*
X157648720Y-109162300D01*
X157509020Y-109302000D01*
X157369320Y-109441700D01*
X157369320Y-109639820D01*
X157369320Y-109835400D01*
X157194060Y-109903980D01*
X157021340Y-109972560D01*
X156891800Y-109832860D01*
X156762260Y-109693160D01*
X156571760Y-109690620D01*
X156381260Y-109685540D01*
X156259340Y-109825240D01*
X156203460Y-109883660D01*
X156155200Y-109931920D01*
X156119640Y-109959860D01*
X156109480Y-109962400D01*
X156079000Y-109954780D01*
X156023120Y-109937000D01*
X155952000Y-109909060D01*
X155924060Y-109896360D01*
X155766580Y-109830320D01*
X155771660Y-109637280D01*
X155776740Y-109441700D01*
X155634500Y-109302000D01*
X155494800Y-109159760D01*
X155306840Y-109172460D01*
X155118880Y-109185160D01*
X155047760Y-109017520D01*
X155017280Y-108941320D01*
X154991880Y-108877820D01*
X154979180Y-108834640D01*
X154976640Y-108824480D01*
X154989340Y-108804160D01*
X155027440Y-108760980D01*
X155080780Y-108710180D01*
X155113800Y-108679700D01*
X155250960Y-108555240D01*
X155250960Y-108367280D01*
X155250960Y-108176780D01*
X155103640Y-108044700D01*
X154958860Y-107915160D01*
X154958860Y-107915160D01*
M02*
