G04 #@! TF.FileFunction,Legend,Top*
%FSLAX46Y46*%
G04 Gerber Fmt 4.6, Leading zero omitted, Abs format (unit mm)*
G04 Created by KiCad (PCBNEW 4.0.1-stable) date 3/11/2016 2:16:34 AM*
%MOMM*%
G01*
G04 APERTURE LIST*
%ADD10C,0.100000*%
%ADD11C,0.300000*%
%ADD12C,0.150000*%
G04 APERTURE END LIST*
D10*
D11*
X163292857Y-94578571D02*
X163792857Y-96078571D01*
X164292857Y-94578571D01*
X164435714Y-96221429D02*
X165578571Y-96221429D01*
X166650000Y-96078571D02*
X165935714Y-96078571D01*
X165935714Y-94578571D01*
X167150000Y-95292857D02*
X167650000Y-95292857D01*
X167864286Y-96078571D02*
X167150000Y-96078571D01*
X167150000Y-94578571D01*
X167864286Y-94578571D01*
X168507143Y-96078571D02*
X168507143Y-94578571D01*
X168864286Y-94578571D01*
X169078571Y-94650000D01*
X169221429Y-94792857D01*
X169292857Y-94935714D01*
X169364286Y-95221429D01*
X169364286Y-95435714D01*
X169292857Y-95721429D01*
X169221429Y-95864286D01*
X169078571Y-96007143D01*
X168864286Y-96078571D01*
X168507143Y-96078571D01*
X164757143Y-113950000D02*
X164614286Y-113878571D01*
X164400000Y-113878571D01*
X164185715Y-113950000D01*
X164042857Y-114092857D01*
X163971429Y-114235714D01*
X163900000Y-114521429D01*
X163900000Y-114735714D01*
X163971429Y-115021429D01*
X164042857Y-115164286D01*
X164185715Y-115307143D01*
X164400000Y-115378571D01*
X164542857Y-115378571D01*
X164757143Y-115307143D01*
X164828572Y-115235714D01*
X164828572Y-114735714D01*
X164542857Y-114735714D01*
X165471429Y-115378571D02*
X165471429Y-113878571D01*
X166328572Y-115378571D01*
X166328572Y-113878571D01*
X167042858Y-115378571D02*
X167042858Y-113878571D01*
X167400001Y-113878571D01*
X167614286Y-113950000D01*
X167757144Y-114092857D01*
X167828572Y-114235714D01*
X167900001Y-114521429D01*
X167900001Y-114735714D01*
X167828572Y-115021429D01*
X167757144Y-115164286D01*
X167614286Y-115307143D01*
X167400001Y-115378571D01*
X167042858Y-115378571D01*
D12*
X168300000Y-109600000D02*
X168300000Y-107600000D01*
X168293775Y-107583350D02*
G75*
G03X168300000Y-109600000I-2693775J-1016650D01*
G01*
X163300000Y-99000000D02*
X168000000Y-99000000D01*
X168000000Y-99000000D02*
X168000000Y-101800000D01*
X168000000Y-101800000D02*
X163200000Y-101800000D01*
X163200000Y-101800000D02*
X163200000Y-99000000D01*
X159050240Y-110299160D02*
X159050240Y-110250900D01*
X158349200Y-107500180D02*
X159050240Y-107500180D01*
X159050240Y-107500180D02*
X159050240Y-107749100D01*
X159050240Y-110299160D02*
X159050240Y-110499820D01*
X159050240Y-110499820D02*
X158349200Y-110499820D01*
X158275000Y-99600000D02*
X158275000Y-100800000D01*
X156525000Y-100800000D02*
X156525000Y-99600000D01*
X145341421Y-107200000D02*
G75*
G03X145341421Y-107200000I-141421J0D01*
G01*
X145341421Y-102800000D02*
G75*
G03X145341421Y-102800000I-141421J0D01*
G01*
X151800000Y-106800000D02*
X151800000Y-106900000D01*
X151800000Y-106900000D02*
X151800000Y-107600000D01*
X151800000Y-106800000D02*
G75*
G03X150600000Y-106800000I-600000J0D01*
G01*
X150600000Y-106800000D02*
G75*
G03X149400000Y-106800000I-600000J0D01*
G01*
X149400000Y-106800000D02*
G75*
G03X148200000Y-106800000I-600000J0D01*
G01*
X148200000Y-106800000D02*
G75*
G03X147000000Y-106800000I-600000J0D01*
G01*
X147000000Y-106800000D02*
G75*
G03X145800000Y-106800000I-600000J0D01*
G01*
X144600000Y-106800000D02*
X144600000Y-107600000D01*
X145800000Y-106800000D02*
G75*
G03X144600000Y-106800000I-600000J0D01*
G01*
X151800000Y-103200000D02*
X151800000Y-102400000D01*
X144600000Y-103200000D02*
X144600000Y-102400000D01*
X151800000Y-103200000D02*
G75*
G02X150600000Y-103200000I-600000J0D01*
G01*
X150600000Y-103200000D02*
G75*
G02X149400000Y-103200000I-600000J0D01*
G01*
X149400000Y-103200000D02*
G75*
G02X148200000Y-103200000I-600000J0D01*
G01*
X148200000Y-103200000D02*
G75*
G02X147000000Y-103200000I-600000J0D01*
G01*
X147000000Y-103200000D02*
G75*
G02X145800000Y-103200000I-600000J0D01*
G01*
X145800000Y-103200000D02*
G75*
G02X144600000Y-103200000I-600000J0D01*
G01*
X151800000Y-105600000D02*
X144600000Y-105600000D01*
X144600000Y-104400000D02*
X151800000Y-104400000D01*
X153200000Y-110000000D02*
X153200000Y-116000000D01*
X153200000Y-116000000D02*
X143200000Y-116000000D01*
X143200000Y-116000000D02*
X143200000Y-110000000D01*
X143200000Y-94000000D02*
X153200000Y-94000000D01*
X153200000Y-94000000D02*
X153200000Y-100000000D01*
X143200000Y-94000000D02*
X143200000Y-100000000D01*
X153200000Y-104000000D02*
X153200000Y-106000000D01*
X143200000Y-104000000D02*
X143200000Y-106000000D01*
X163100000Y-95700000D02*
G75*
G03X163100000Y-95700000I-1600000J0D01*
G01*
X163100000Y-114700000D02*
G75*
G03X163100000Y-114700000I-1600000J0D01*
G01*
X164661905Y-105252381D02*
X164661905Y-104252381D01*
X164900000Y-104252381D01*
X165042858Y-104300000D01*
X165138096Y-104395238D01*
X165185715Y-104490476D01*
X165233334Y-104680952D01*
X165233334Y-104823810D01*
X165185715Y-105014286D01*
X165138096Y-105109524D01*
X165042858Y-105204762D01*
X164900000Y-105252381D01*
X164661905Y-105252381D01*
X166185715Y-105252381D02*
X165614286Y-105252381D01*
X165900000Y-105252381D02*
X165900000Y-104252381D01*
X165804762Y-104395238D01*
X165709524Y-104490476D01*
X165614286Y-104538095D01*
X164561905Y-98552381D02*
X164561905Y-97552381D01*
X164800000Y-97552381D01*
X164942858Y-97600000D01*
X165038096Y-97695238D01*
X165085715Y-97790476D01*
X165133334Y-97980952D01*
X165133334Y-98123810D01*
X165085715Y-98314286D01*
X165038096Y-98409524D01*
X164942858Y-98504762D01*
X164800000Y-98552381D01*
X164561905Y-98552381D01*
X165514286Y-97647619D02*
X165561905Y-97600000D01*
X165657143Y-97552381D01*
X165895239Y-97552381D01*
X165990477Y-97600000D01*
X166038096Y-97647619D01*
X166085715Y-97742857D01*
X166085715Y-97838095D01*
X166038096Y-97980952D01*
X165466667Y-98552381D01*
X166085715Y-98552381D01*
X168538095Y-100852381D02*
X168538095Y-99852381D01*
X169109524Y-100852381D02*
X168680952Y-100280952D01*
X169109524Y-99852381D02*
X168538095Y-100423810D01*
X162261905Y-100566667D02*
X162738096Y-100566667D01*
X162166667Y-100852381D02*
X162500000Y-99852381D01*
X162833334Y-100852381D01*
X137461905Y-105452381D02*
X137461905Y-104452381D01*
X137842858Y-104452381D01*
X137938096Y-104500000D01*
X137985715Y-104547619D01*
X138033334Y-104642857D01*
X138033334Y-104785714D01*
X137985715Y-104880952D01*
X137938096Y-104928571D01*
X137842858Y-104976190D01*
X137461905Y-104976190D01*
X138985715Y-105452381D02*
X138414286Y-105452381D01*
X138700000Y-105452381D02*
X138700000Y-104452381D01*
X138604762Y-104595238D01*
X138509524Y-104690476D01*
X138414286Y-104738095D01*
X158504762Y-106747619D02*
X158409524Y-106700000D01*
X158314286Y-106604762D01*
X158171429Y-106461905D01*
X158076190Y-106414286D01*
X157980952Y-106414286D01*
X158028571Y-106652381D02*
X157933333Y-106604762D01*
X157838095Y-106509524D01*
X157790476Y-106319048D01*
X157790476Y-105985714D01*
X157838095Y-105795238D01*
X157933333Y-105700000D01*
X158028571Y-105652381D01*
X158219048Y-105652381D01*
X158314286Y-105700000D01*
X158409524Y-105795238D01*
X158457143Y-105985714D01*
X158457143Y-106319048D01*
X158409524Y-106509524D01*
X158314286Y-106604762D01*
X158219048Y-106652381D01*
X158028571Y-106652381D01*
X159409524Y-106652381D02*
X158838095Y-106652381D01*
X159123809Y-106652381D02*
X159123809Y-105652381D01*
X159028571Y-105795238D01*
X158933333Y-105890476D01*
X158838095Y-105938095D01*
X159733334Y-100552381D02*
X159400000Y-100076190D01*
X159161905Y-100552381D02*
X159161905Y-99552381D01*
X159542858Y-99552381D01*
X159638096Y-99600000D01*
X159685715Y-99647619D01*
X159733334Y-99742857D01*
X159733334Y-99885714D01*
X159685715Y-99980952D01*
X159638096Y-100028571D01*
X159542858Y-100076190D01*
X159161905Y-100076190D01*
X160685715Y-100552381D02*
X160114286Y-100552381D01*
X160400000Y-100552381D02*
X160400000Y-99552381D01*
X160304762Y-99695238D01*
X160209524Y-99790476D01*
X160114286Y-99838095D01*
X153638095Y-95052381D02*
X154209524Y-95052381D01*
X153923809Y-96052381D02*
X153923809Y-95052381D01*
X155066667Y-96052381D02*
X154495238Y-96052381D01*
X154780952Y-96052381D02*
X154780952Y-95052381D01*
X154685714Y-95195238D01*
X154590476Y-95290476D01*
X154495238Y-95338095D01*
X157038095Y-94852381D02*
X157609524Y-94852381D01*
X157323809Y-95852381D02*
X157323809Y-94852381D01*
X157942857Y-95852381D02*
X157942857Y-94852381D01*
X158323810Y-94852381D01*
X158419048Y-94900000D01*
X158466667Y-94947619D01*
X158514286Y-95042857D01*
X158514286Y-95185714D01*
X158466667Y-95280952D01*
X158419048Y-95328571D01*
X158323810Y-95376190D01*
X157942857Y-95376190D01*
X159466667Y-95852381D02*
X158895238Y-95852381D01*
X159180952Y-95852381D02*
X159180952Y-94852381D01*
X159085714Y-94995238D01*
X158990476Y-95090476D01*
X158895238Y-95138095D01*
X157138095Y-114052381D02*
X157709524Y-114052381D01*
X157423809Y-115052381D02*
X157423809Y-114052381D01*
X158042857Y-115052381D02*
X158042857Y-114052381D01*
X158423810Y-114052381D01*
X158519048Y-114100000D01*
X158566667Y-114147619D01*
X158614286Y-114242857D01*
X158614286Y-114385714D01*
X158566667Y-114480952D01*
X158519048Y-114528571D01*
X158423810Y-114576190D01*
X158042857Y-114576190D01*
X158995238Y-114147619D02*
X159042857Y-114100000D01*
X159138095Y-114052381D01*
X159376191Y-114052381D01*
X159471429Y-114100000D01*
X159519048Y-114147619D01*
X159566667Y-114242857D01*
X159566667Y-114338095D01*
X159519048Y-114480952D01*
X158947619Y-115052381D01*
X159566667Y-115052381D01*
M02*
